<svg width="240" height="547" viewBox="0 0 240 547" fill="none" xmlns="http://www.w3.org/2000/svg">
<path d="M231.731 525.98C237.106 524.711 240.434 519.324 239.165 513.949L218.477 426.359C217.207 420.984 211.821 417.656 206.446 418.926C201.071 420.195 197.743 425.582 199.012 430.957L217.402 508.815L139.544 527.204C134.169 528.473 130.841 533.86 132.11 539.235C133.38 544.61 138.766 547.938 144.141 546.668L231.731 525.98ZM71.4323 4.74805L62.6315 -0.000356711C14.4274 89.3416 -13.0845 179.193 6.22286 268.059C25.5756 357.133 91.3934 442.713 224.176 524.755L229.432 516.248L234.689 507.741C104.471 427.283 43.5392 345.613 25.7669 263.812C7.94921 181.803 32.9373 97.1545 80.233 9.49645L71.4323 4.74805Z" fill="#74D4FF"/>
</svg>
