<?xml version="1.0" encoding="utf-8"?>
<!-- Generator: Adobe Illustrator 27.5.0, SVG Export Plug-In . SVG Version: 6.00 Build 0)  -->
<svg version="1.1" xmlns="http://www.w3.org/2000/svg" xmlns:xlink="http://www.w3.org/1999/xlink" x="0px" y="0px"
	 viewBox="0 0 750 500" style="enable-background:new 0 0 750 500;" xml:space="preserve">
<g id="BACKGROUND">
	<g>
		<defs>
			<rect id="SVGID_1_" width="750" height="500"/>
		</defs>
		<clipPath id="SVGID_00000083779550809908772130000012836578141026780842_">
			<use xlink:href="#SVGID_1_"  style="overflow:visible;"/>
		</clipPath>
		<g style="clip-path:url(#SVGID_00000083779550809908772130000012836578141026780842_);">
			
				<linearGradient id="SVGID_00000070119929936718713800000017816533418478511765_" gradientUnits="userSpaceOnUse" x1="375" y1="500" x2="375" y2="-1.818989e-12" gradientTransform="matrix(-1 0 0 -1 750.0001 500)">
				<stop  offset="0" style="stop-color:#99F7D6"/>
				<stop  offset="0.0046" style="stop-color:#9AF7D6"/>
				<stop  offset="0.1535" style="stop-color:#B6F9D8"/>
				<stop  offset="0.3138" style="stop-color:#CBFAD9"/>
				<stop  offset="0.4913" style="stop-color:#DAFBDA"/>
				<stop  offset="0.6974" style="stop-color:#E3FCDB"/>
				<stop  offset="1" style="stop-color:#E6FCDB"/>
			</linearGradient>
			<rect style="fill:url(#SVGID_00000070119929936718713800000017816533418478511765_);" width="750" height="500"/>
		</g>
	</g>
</g>
<g id="OBJECTS">
	<g>
		<defs>
			<rect id="SVGID_00000005267403391707040620000000536897378081886877_" width="750" height="500"/>
		</defs>
		<clipPath id="SVGID_00000132085823673105534900000018385473813592638856_">
			<use xlink:href="#SVGID_00000005267403391707040620000000536897378081886877_"  style="overflow:visible;"/>
		</clipPath>
		<g style="clip-path:url(#SVGID_00000132085823673105534900000018385473813592638856_);">
			<polygon style="opacity:0.24;fill:#FFFFFF;" points="-21.014,210.111 771.875,251 771.875,238.556 -22.792,183.444 
				-22.792,151.444 779.43,224.333 779.43,215 -41.903,120.333 -35.236,207 			"/>
			<path style="fill:#96B1D9;" d="M170.393,332.333c188.591-74.256,217.723-89.727,274.453-61.88
				c56.73,27.846,154.859-94.883,251.454-53.63c0,0,24.532,15.47,75.13-18.564v112.416L170.393,332.333z"/>
			<g>
				<path style="fill:#849CBF;" d="M-11.236,284.333c0,0,73.333-36,157.333-20s266.667,41.333,322.667,29.333s160,13.333,160,13.333
					l-644,36L-11.236,284.333z"/>
				<path style="fill:#6F89AA;" d="M297.208,311.444c-124.693,1.609-309.808-1.88-254.233-44.728
					c-32.855,7.138-54.211,17.617-54.211,17.617l-4,58.667l572.656-32.012C515.31,293.954,433.771,309.682,297.208,311.444z"/>
				<path style="fill:#96B1D9;" d="M332.338,323.57l15.004-0.839c10.023-5.113,33.642-18.742,22.105-28.451
					c-1.044-0.078-2.097-0.161-3.148-0.242C379.768,306.191,344.226,319.554,332.338,323.57z"/>
				<path style="fill:#6F89AA;" d="M392.986,295.667c0,0,6.444-3.111,11.778-1.111c0,0,6.667-6.667,13.778-3.333
					c0,0,3.778-2.667,6.444-0.889c0,0,15.333-2.889,22,6.889C446.986,297.222,406.764,298.556,392.986,295.667z"/>
				<path style="fill:#6F89AA;" d="M347.43,292.556c0,0-4.667-4-7.333-2.444c0,0-7.333-6.074-11.778,0.815L347.43,292.556z"/>
			</g>
			<g>
				<polygon style="fill:#FAE798;" points="-9.014,327.444 138.541,318.556 138.597,319.611 -10.292,328.944 				"/>
				<polygon style="fill:#FAE798;" points="-8.403,331.222 139.152,322.333 139.208,323.389 -9.681,332.722 				"/>
				<g>
					<path style="fill:#FAE798;" d="M0.134,324.963c-0.982,0-1.778,0.796-1.778,1.778v12.296h3.556v-12.296
						C1.912,325.759,1.116,324.963,0.134,324.963z"/>
					<path style="fill:#FAE798;" d="M15.578,323.963c-0.982,0-1.778,0.796-1.778,1.778v12.296h3.556v-12.296
						C17.356,324.759,16.56,323.963,15.578,323.963z"/>
					<path style="fill:#FAE798;" d="M31.023,322.963c-0.982,0-1.778,0.796-1.778,1.778v12.296h3.556v-12.296
						C32.801,323.759,32.005,322.963,31.023,322.963z"/>
					<path style="fill:#FAE798;" d="M46.467,321.963c-0.982,0-1.778,0.796-1.778,1.778v12.296h3.556v-12.296
						C48.245,322.759,47.449,321.963,46.467,321.963z"/>
					<path style="fill:#FAE798;" d="M61.912,320.963L61.912,320.963c-0.982,0-1.778,0.796-1.778,1.778v12.296h3.556v-12.296
						C63.689,321.759,62.893,320.963,61.912,320.963z"/>
					<path style="fill:#FAE798;" d="M77.356,319.963c-0.982,0-1.778,0.796-1.778,1.778v12.296h3.556v-12.296
						C79.134,320.759,78.338,319.963,77.356,319.963z"/>
					<path style="fill:#FAE798;" d="M92.801,318.963c-0.982,0-1.778,0.796-1.778,1.778v12.296h3.556v-12.296
						C94.578,319.759,93.782,318.963,92.801,318.963z"/>
					<path style="fill:#FAE798;" d="M108.245,317.963c-0.982,0-1.778,0.796-1.778,1.778v12.296h3.555v-12.296
						C110.023,318.759,109.227,317.963,108.245,317.963z"/>
					<path style="fill:#FAE798;" d="M123.689,316.963c-0.982,0-1.778,0.796-1.778,1.778v12.296h3.556v-12.296
						C125.467,317.759,124.671,316.963,123.689,316.963z"/>
					<path style="fill:#FAE798;" d="M139.134,315.963c-0.982,0-1.778,0.796-1.778,1.778v12.296h3.555v-12.296
						C140.912,316.759,140.116,315.963,139.134,315.963z"/>
				</g>
			</g>
			<g>
				<polygon style="fill:#01C68E;" points="-9.903,336.333 764.764,297.667 764.764,517.667 -7.236,517.667 				"/>
				<g>
					<g>
						<g>
							
								<rect x="-21.244" y="318.5" transform="matrix(0.9984 -0.0566 0.0566 0.9984 -17.411 23.506)" style="fill:#14A699;" width="854.682" height="1"/>
						</g>
						<g>
							
								<rect x="-24.208" y="326.889" transform="matrix(0.9984 -0.0562 0.0562 0.9984 -17.7813 23.162)" style="fill:#14A699;" width="854.682" height="1.999"/>
						</g>
						<g>
							
								<rect x="-24.207" y="338.833" transform="matrix(0.9984 -0.056 0.056 0.9984 -18.4213 23.1032)" style="fill:#14A699;" width="854.682" height="3.001"/>
						</g>
						<g>
							
								<rect x="-24.651" y="355.667" transform="matrix(0.9984 -0.0561 0.0561 0.9984 -19.4453 23.1723)" style="fill:#14A699;" width="854.682" height="4.001"/>
						</g>
						<g>
							
								<rect x="-23.318" y="376.056" transform="matrix(0.9984 -0.0562 0.0562 0.9984 -20.6501 23.3208)" style="fill:#14A699;" width="854.682" height="5"/>
						</g>
						<g>
							
								<rect x="-21.54" y="398.223" transform="matrix(0.9984 -0.056 0.056 0.9984 -21.8327 23.3556)" style="fill:#14A699;" width="854.682" height="6"/>
						</g>
						<g>
							
								<rect x="-22.43" y="419.056" transform="matrix(0.9984 -0.0561 0.0561 0.9984 -23.0585 23.3711)" style="fill:#14A699;" width="854.683" height="6.999"/>
						</g>
					</g>
				</g>
			</g>
			<path style="fill:#0E8971;" d="M372.986,358.333c0,0,50.444,3.111,84.667,1.556l-15.333-2.222c0,0-7.333-14.667-22-5.333
				c0,0-15.333-21.111-30.889,0.222C389.43,352.556,377.652,345.222,372.986,358.333z"/>
			<g>
				<polygon style="fill:#E0BA5C;" points="521.277,283.956 536.785,298.618 536.785,349.37 556.24,349.37 556.24,295.798 
					577.951,274.087 572.876,269.012 553.421,288.467 555.394,276.907 552.011,276.625 548.063,296.926 544.68,297.208 
					533.12,265.628 528.044,267.602 537.067,291.005 524.379,277.189 				"/>
				<g>
					<path style="fill:#C18F36;" d="M540.753,286.479l-7.633-20.851l-5.075,1.974l9.023,23.403l-12.688-13.816l-3.102,6.767
						l10.896,10.302C536.788,292.117,539.401,288.801,540.753,286.479z"/>
					<polygon style="fill:#C18F36;" points="575.92,272.056 572.876,269.012 553.421,288.467 555.394,276.907 552.011,276.625 
						549.305,290.539 550.883,291.992 549.473,299.464 548.627,314.407 545.244,322.02 546.599,349.37 556.24,349.37 
						556.24,295.798 576.188,275.85 					"/>
				</g>
				<path style="fill:#448432;" d="M579.893,205.294c-8.017-16.841-25.188-28.483-45.082-28.483
					c-27.563,0-49.907,22.344-49.907,49.907c0,5.294,0.831,10.392,2.358,15.179c-6.854,5.544-11.24,14.018-11.24,23.52
					c0,16.701,13.539,30.24,30.24,30.24c12.744,0,23.639-7.888,28.09-19.044c0.153,0.001,0.304,0.012,0.458,0.012
					c2.487,0,4.929-0.188,7.318-0.539c6.793,5.117,15.243,8.152,24.402,8.152c22.424,0,40.602-18.178,40.602-40.602
					C607.134,225.894,595.751,210.82,579.893,205.294z"/>
				<path style="fill:#659944;" d="M563.056,202.285c-5.746-3.15-11.106-6.973-15.588-11.754c-4.011-4.279-9.712-6.952-16.04-6.952
					c-10.573,0-19.4,7.462-21.51,17.406c-6.828,1.119-12.043,7.029-12.043,14.173c0,0.018,0,0.037,0,0.055
					c0.012,3.101-1.348,6.079-3.924,7.805c-8.428,5.645-13.825,15.463-13.231,26.498c0.833,15.49,13.704,27.912,29.214,28.231
					c11.462,0.236,21.487-5.986,26.702-15.272c4.725,1.6,9.921,2.177,15.34,1.406c14.917-2.123,26.644-14.406,28.076-29.406
					C581.371,220.652,574.154,208.37,563.056,202.285z"/>
				<g>
					<path style="fill:#79AA4F;" d="M551.588,209.66c0-1.557-4.639-2.82-10.362-2.82c-0.363,0-0.72,0.005-1.073,0.015
						c0.368-0.402,0.579-0.833,0.579-1.284c0-2.102-4.355-3.807-9.727-3.807c-5.372,0-9.728,1.704-9.728,3.807
						c0,2.091,4.308,3.786,9.639,3.805c-0.034,0.093-0.053,0.188-0.053,0.284c0,0.199,0.078,0.393,0.222,0.581
						c-9.435,0.178-16.999,4.829-16.999,10.557c0,5.839,7.858,10.573,17.552,10.573c9.694,0,17.552-4.734,17.552-10.573
						c0-3.392-2.661-6.403-6.783-8.337C547.573,212.3,551.588,211.108,551.588,209.66z"/>
					<ellipse style="fill:#79AA4F;" cx="506.968" cy="216.99" rx="2.749" ry="1.41"/>
					<path style="fill:#79AA4F;" d="M504.712,231.934c-5.956,0-10.785,2.399-10.785,5.357c0,2.959,4.828,5.357,10.785,5.357
						c5.956,0,10.785-2.398,10.785-5.357C515.497,234.333,510.669,231.934,504.712,231.934z"/>
					<ellipse style="fill:#79AA4F;" cx="509.999" cy="226.93" rx="3.665" ry="1.48"/>
				</g>
				<path style="fill:#3B7229;" d="M579.893,205.294c-2.053-4.312-4.708-8.279-7.853-11.801c-1.708,2.262-2.964,4.884-3.62,7.741
					c-0.829,1.351-1.599,2.741-2.311,4.166c-5.383,3.87-8.901,10.167-8.901,17.303c0,4.165,1.212,8.039,3.276,11.323
					c1.375,18.844,12.219,35.051,27.797,43.889c11.332-7.199,18.853-19.859,18.853-34.281
					C607.134,225.894,595.751,210.82,579.893,205.294z"/>
			</g>
			<g>
				<path style="fill:#FAE798;" d="M270.13,322.356l-17.934,0.895c-10.425,9.982-42.565,53.594,186.344,57.527l72-22.222
					C510.541,358.556,213.692,367.937,270.13,322.356z"/>
				<path style="fill:#E8CF8E;" d="M447.657,359.35c-4.103,6.809-17.659,13.476-44.379,20.438c11.004,0.44,22.743,0.774,35.263,0.99
					l72-22.222C510.541,358.556,483.679,359.404,447.657,359.35z"/>
				<path style="fill:#E8CF8E;" d="M255.43,342.333c0,0,6.889,16.667,59.556,24c52.667,7.333,108.222,10,108.222,10
					s-69.778-6.222-100.889-10.667C291.208,361.222,270.319,356.778,255.43,342.333z"/>
				<path style="fill:#E8CF8E;" d="M258.764,331.667c0,0-6,18.667,90.889,29.778C349.652,361.444,257.652,355,258.764,331.667z"/>
				<polygon style="fill:#E8CF8E;" points="446.764,364.333 370.764,359.889 446.097,365.889 				"/>
			</g>
			<g>
				<g>
					<path style="fill:#A4CF4E;" d="M775.43,315c-318.222,0-654.222,204.444-654.222,204.444h656L775.43,315z"/>
					<path style="fill:#79AA4F;" d="M623.1,519.445h154.108L775.43,315c-78.491,0-158.06,12.443-233.405,31.183
						C717.938,338.502,771.404,417.23,623.1,519.445z"/>
				</g>
				<g>
					<path style="fill:#FAE798;" d="M299.202,519.445h138.128c38.321-36.576,107.383-117.546-1.423-142.224
						c-18.862,6.309-37.225,12.861-54.995,19.533C443.703,409.254,348.434,484.245,299.202,519.445z"/>
					<path style="fill:#E8CF8E;" d="M491.924,443.414c-35.656,14.881-84.463,21.053-122.892,19.595
						c-21.614,20.8-49.606,41.975-69.831,56.435h138.128C456.594,501.057,483.625,471.449,491.924,443.414z"/>
				</g>
				<ellipse style="fill:#E8CF8E;" cx="426.986" cy="459.37" rx="10.667" ry="4.815"/>
				<path style="fill:#E8CF8E;" d="M455.43,457.963c0,1.554-3.35,2.815-7.482,2.815s-7.482-1.26-7.482-2.815
					c0-1.555,3.35-2.815,7.482-2.815S455.43,456.408,455.43,457.963z"/>
				<ellipse style="fill:#E8CF8E;" cx="440.245" cy="453.296" rx="1.704" ry="1.111"/>
				<path style="fill:#E8CF8E;" d="M424.467,462.778c0,2.741-5.97,4.963-13.333,4.963s-13.333-2.222-13.333-4.963
					c0-2.741,5.969-4.963,13.333-4.963S424.467,460.037,424.467,462.778z"/>
				<ellipse style="fill:#E8CF8E;" cx="414.764" cy="454.63" rx="2.296" ry="1.407"/>
				<path style="fill:#E8CF8E;" d="M458.541,448.482c0,0.573-1.194,1.037-2.667,1.037c-1.473,0-2.667-0.464-2.667-1.037
					c0-0.573,1.194-1.037,2.667-1.037C457.347,447.444,458.541,447.909,458.541,448.482z"/>
				<path style="fill:#E8CF8E;" d="M464.319,454.852c0,1.145-2.288,2.074-5.111,2.074c-2.823,0-5.111-0.929-5.111-2.074
					c0-1.146,2.288-2.074,5.111-2.074C462.031,452.778,464.319,453.706,464.319,454.852z"/>
				<ellipse style="fill:#E8CF8E;" cx="476.615" cy="450.185" rx="8" ry="4.815"/>
				<path style="fill:#E8CF8E;" d="M467.134,447.074c0,0.614-0.962,1.111-2.148,1.111c-1.186,0-2.148-0.497-2.148-1.111
					c0-0.614,0.962-1.111,2.148-1.111C466.172,445.963,467.134,446.46,467.134,447.074z"/>
				<ellipse style="fill:#E8CF8E;" cx="467.727" cy="452.926" rx="7.556" ry="3.704"/>
				<path style="fill:#E8CF8E;" d="M408.615,461.889c0,3.068-6.732,5.556-15.037,5.556c-8.305,0-15.037-2.487-15.037-5.556
					c0-3.068,6.732-5.556,15.037-5.556C401.883,456.333,408.615,458.821,408.615,461.889z"/>
				<path style="fill:#E8CF8E;" d="M406.541,453.37c0,0.818-1.592,1.482-3.556,1.482c-1.964,0-3.556-0.663-3.556-1.482
					s1.592-1.482,3.556-1.482C404.949,451.889,406.541,452.552,406.541,453.37z"/>
				<path style="fill:#E8CF8E;" d="M431.43,448.037c0,0.736-2.156,1.333-4.815,1.333c-2.659,0-4.815-0.597-4.815-1.333
					c0-0.736,2.156-1.333,4.815-1.333C429.275,446.704,431.43,447.301,431.43,448.037z"/>
				<path style="fill:#E8CF8E;" d="M489.356,442.556c0,2.864-3.515,5.185-7.852,5.185c-4.337,0-7.852-2.321-7.852-5.185
					s3.515-5.185,7.852-5.185C485.841,437.37,489.356,439.692,489.356,442.556z"/>
				<path style="fill:#E8CF8E;" d="M469.208,439.296c0,0.573-0.995,1.037-2.222,1.037c-1.227,0-2.222-0.464-2.222-1.037
					s0.995-1.037,2.222-1.037C468.213,438.259,469.208,438.724,469.208,439.296z"/>
				<ellipse style="fill:#E8CF8E;" cx="485.134" cy="432.185" rx="1.259" ry="0.593"/>
				<path style="fill:#79AA4F;" d="M511.43,360.778c0,0,70.222-16.444,113.333-18.667l9.333,4.889
					C634.097,347,537.652,354.556,511.43,360.778z"/>
				<path style="fill:#79AA4F;" d="M535.134,392.778c0,0,108-28.889,178.667-33.333l16.889,12.889
					C730.69,372.333,616.467,379,535.134,392.778z"/>
				<path style="fill:#79AA4F;" d="M514.986,450.407c0,0,181.333-41.778,224-44l10.667,24
					C749.652,430.407,514.541,449.963,514.986,450.407z"/>
				<polygon style="fill:#79AA4F;" points="463.875,513.667 716.319,464.333 726.986,505.667 				"/>
			</g>
			<path style="fill:#567F3B;" d="M658.541,355.945l97.778-2.981c0,0-12.52-36.368-28.618-25.637c0,0-23.848-10.136-36.369,5.366
				C691.333,332.693,675.235,316,658.541,355.945z"/>
			<path style="fill:#609140;" d="M697.695,360.722l70.729-2.156c0,0-9.057-26.308-20.701-18.545c0,0-17.251-7.332-26.308,3.881
				C721.416,343.902,709.771,331.827,697.695,360.722z"/>
			<path style="fill:#567F3B;" d="M585.758,340.5l55.049-1.678c0,0-7.049-20.475-16.112-14.434c0,0-13.427-5.706-20.476,3.021
				C604.219,327.409,595.156,318.01,585.758,340.5z"/>
			<path style="fill:#609140;" d="M678.097,435.361l122.37-3.731c0,0-15.669-45.516-35.816-32.085c0,0-29.846-12.685-45.516,6.715
				C719.136,406.261,698.989,385.368,678.097,435.361z"/>
			<g>
				<path style="fill:#79AA4F;" d="M-5.903,504.333v-148c0,0,126.667-16,242.667,56s273.333,92,273.333,92S-9.236,501-5.903,504.333
					z"/>
				<path style="fill:#659944;" d="M58.732,502.985c138.494-0.66,451.365,1.348,451.365,1.348s-157.333-20-273.333-92
					c-29.947-18.588-60.6-31.299-89.606-39.946C180.777,425.141,111.255,474.792,58.732,502.985z"/>
				<path style="fill:#79AA4F;" d="M164.764,445.37c0,1.8-1.459,3.259-3.259,3.259c-1.8,0-3.259-1.459-3.259-3.259
					c0-1.8,1.459-3.259,3.259-3.259C163.304,442.111,164.764,443.57,164.764,445.37z"/>
				<path style="fill:#79AA4F;" d="M186.986,417.222c0,2.618-2.122,4.741-4.741,4.741c-2.618,0-4.741-2.122-4.741-4.741
					c0-2.618,2.122-4.741,4.741-4.741C184.863,412.482,186.986,414.604,186.986,417.222z"/>
				<path style="fill:#79AA4F;" d="M201.801,437.074c0,1.8-1.459,3.259-3.259,3.259c-1.8,0-3.259-1.459-3.259-3.259
					c0-1.8,1.459-3.259,3.259-3.259C200.341,433.815,201.801,435.274,201.801,437.074z"/>
				<path style="fill:#79AA4F;" d="M186.097,463.741c0,1.309-1.061,2.37-2.37,2.37c-1.309,0-2.37-1.061-2.37-2.37
					c0-1.309,1.061-2.37,2.37-2.37C185.036,461.37,186.097,462.432,186.097,463.741z"/>
				<path style="fill:#79AA4F;" d="M147.282,472.037c0,3.109-2.52,5.63-5.63,5.63c-3.109,0-5.63-2.52-5.63-5.63
					c0-3.109,2.52-5.63,5.63-5.63C144.762,466.407,147.282,468.928,147.282,472.037z"/>
				<path style="fill:#79AA4F;" d="M192.912,488.926c0,3.109-2.521,5.63-5.63,5.63c-3.109,0-5.63-2.521-5.63-5.63
					c0-3.109,2.521-5.63,5.63-5.63C190.391,483.296,192.912,485.817,192.912,488.926z"/>
				<path style="fill:#79AA4F;" d="M235.875,423.741c0,3.436-2.786,6.222-6.222,6.222c-3.436,0-6.222-2.786-6.222-6.222
					c0-3.436,2.786-6.222,6.222-6.222C233.089,417.518,235.875,420.304,235.875,423.741z"/>
				<path style="fill:#79AA4F;" d="M242.097,446.259c0,1.145-0.929,2.074-2.074,2.074c-1.146,0-2.074-0.929-2.074-2.074
					c0-1.146,0.929-2.074,2.074-2.074C241.168,444.185,242.097,445.114,242.097,446.259z"/>
				<path style="fill:#79AA4F;" d="M169.504,391.741c0,2.127-1.725,3.852-3.852,3.852s-3.852-1.724-3.852-3.852
					c0-2.127,1.724-3.852,3.852-3.852S169.504,389.613,169.504,391.741z"/>
				<circle style="fill:#79AA4F;" cx="209.801" cy="413.37" r="1.482"/>
				<path style="fill:#79AA4F;" d="M238.245,477.963c0,2.782-2.255,5.037-5.037,5.037s-5.037-2.255-5.037-5.037
					c0-2.782,2.255-5.037,5.037-5.037S238.245,475.181,238.245,477.963z"/>
				<path style="fill:#79AA4F;" d="M284.467,454.259c0,1.473-1.194,2.667-2.667,2.667c-1.473,0-2.667-1.194-2.667-2.667
					c0-1.473,1.194-2.667,2.667-2.667C283.273,451.593,284.467,452.786,284.467,454.259z"/>
				<circle style="fill:#79AA4F;" cx="295.727" cy="474.407" r="5.333"/>
				<path style="fill:#79AA4F;" d="M273.801,484.185c0,2.291-1.857,4.148-4.148,4.148c-2.291,0-4.148-1.857-4.148-4.148
					c0-2.291,1.857-4.148,4.148-4.148C271.943,480.037,273.801,481.894,273.801,484.185z"/>
				<path style="fill:#79AA4F;" d="M266.393,460.778c0,3.273-2.653,5.926-5.926,5.926s-5.926-2.653-5.926-5.926
					s2.653-5.926,5.926-5.926S266.393,457.505,266.393,460.778z"/>
				<circle style="fill:#79AA4F;" cx="327.727" cy="476.482" r="2.074"/>
				<circle style="fill:#79AA4F;" cx="312.912" cy="492.482" r="2.37"/>
				<circle style="fill:#79AA4F;" cx="313.208" cy="459" r="2.074"/>
				<path style="fill:#79AA4F;" d="M356.467,484.185c0,1.636-1.327,2.963-2.963,2.963c-1.636,0-2.963-1.327-2.963-2.963
					c0-1.636,1.327-2.963,2.963-2.963C355.141,481.222,356.467,482.549,356.467,484.185z"/>
				<circle style="fill:#79AA4F;" cx="343.727" cy="498.704" r="2.074"/>
				<path style="fill:#79AA4F;" d="M389.949,491.296c0,1.964-1.592,3.556-3.556,3.556c-1.964,0-3.556-1.592-3.556-3.556
					c0-1.964,1.592-3.556,3.556-3.556C388.357,487.741,389.949,489.333,389.949,491.296z"/>
				<path style="fill:#79AA4F;" d="M373.356,496.926c0,1.636-1.326,2.963-2.963,2.963c-1.636,0-2.963-1.327-2.963-2.963
					c0-1.636,1.327-2.963,2.963-2.963C372.03,493.963,373.356,495.289,373.356,496.926z"/>
				<path style="fill:#79AA4F;" d="M374.541,480.63c0,1.309-1.061,2.37-2.37,2.37c-1.309,0-2.37-1.061-2.37-2.37
					c0-1.309,1.061-2.37,2.37-2.37C373.48,478.259,374.541,479.32,374.541,480.63z"/>
				<path style="fill:#91C95B;" d="M69.652,405.37c0,2.291-1.857,4.148-4.148,4.148c-2.291,0-4.148-1.857-4.148-4.148
					c0-2.291,1.857-4.148,4.148-4.148C67.795,401.222,69.652,403.079,69.652,405.37z"/>
				<path style="fill:#91C95B;" d="M84.764,422.852c0,1.8-1.459,3.259-3.259,3.259c-1.8,0-3.259-1.459-3.259-3.259
					c0-1.8,1.459-3.259,3.259-3.259C83.304,419.593,84.764,421.052,84.764,422.852z"/>
				<path style="fill:#91C95B;" d="M95.727,386.111c0,2.291-1.857,4.148-4.148,4.148c-2.291,0-4.148-1.857-4.148-4.148
					c0-2.291,1.857-4.148,4.148-4.148C93.869,381.963,95.727,383.82,95.727,386.111z"/>
				<path style="fill:#91C95B;" d="M112.912,407.148c0,2.127-1.725,3.852-3.852,3.852c-2.127,0-3.852-1.724-3.852-3.852
					c0-2.127,1.725-3.852,3.852-3.852C111.187,403.296,112.912,405.021,112.912,407.148z"/>
				<circle style="fill:#91C95B;" cx="128.023" cy="426.111" r="2.667"/>
				<path style="fill:#91C95B;" d="M136.319,392.333c0,0.982-0.796,1.778-1.778,1.778c-0.982,0-1.778-0.796-1.778-1.778
					c0-0.982,0.796-1.778,1.778-1.778C135.523,390.556,136.319,391.352,136.319,392.333z"/>
				<path style="fill:#91C95B;" d="M49.504,459.296c0,2.455-1.99,4.444-4.444,4.444c-2.455,0-4.444-1.99-4.444-4.444
					s1.99-4.444,4.444-4.444C47.514,454.852,49.504,456.842,49.504,459.296z"/>
				<path style="fill:#91C95B;" d="M79.43,449.518c0,1.309-1.061,2.37-2.37,2.37c-1.309,0-2.37-1.061-2.37-2.37
					c0-1.309,1.061-2.37,2.37-2.37C78.369,447.148,79.43,448.209,79.43,449.518z"/>
				<path style="fill:#91C95B;" d="M57.208,477.963c0,1.964-1.592,3.555-3.556,3.555c-1.964,0-3.556-1.592-3.556-3.555
					c0-1.964,1.592-3.556,3.556-3.556C55.616,474.407,57.208,475.999,57.208,477.963z"/>
				<path style="fill:#91C95B;" d="M14.245,423.741c0,1.964-1.592,3.556-3.556,3.556c-1.964,0-3.556-1.592-3.556-3.556
					c0-1.964,1.592-3.555,3.556-3.555C12.653,420.185,14.245,421.777,14.245,423.741z"/>
				<path style="fill:#91C95B;" d="M13.652,456.63c0,1.8-1.459,3.259-3.259,3.259c-1.8,0-3.259-1.459-3.259-3.259
					c0-1.8,1.459-3.259,3.259-3.259C12.193,453.37,13.652,454.83,13.652,456.63z"/>
				<path style="fill:#91C95B;" d="M19.875,476.778c0,2.127-1.725,3.852-3.852,3.852c-2.127,0-3.852-1.725-3.852-3.852
					s1.725-3.852,3.852-3.852C18.15,472.926,19.875,474.651,19.875,476.778z"/>
				<path style="fill:#91C95B;" d="M43.282,425.518c0,2.455-1.99,4.445-4.444,4.445c-2.455,0-4.444-1.99-4.444-4.445
					c0-2.455,1.99-4.444,4.444-4.444C41.292,421.074,43.282,423.064,43.282,425.518z"/>
				<path style="fill:#91C95B;" d="M14.838,379c0,1.146-0.929,2.074-2.074,2.074c-1.145,0-2.074-0.929-2.074-2.074
					s0.929-2.074,2.074-2.074C13.909,376.926,14.838,377.854,14.838,379z"/>
				<path style="fill:#91C95B;" d="M32.912,393.518c0,1.636-1.327,2.963-2.963,2.963c-1.636,0-2.963-1.327-2.963-2.963
					c0-1.636,1.326-2.963,2.963-2.963C31.585,390.556,32.912,391.882,32.912,393.518z"/>
				<path style="fill:#91C95B;" d="M50.393,368.333c0,0.982-0.796,1.778-1.778,1.778c-0.982,0-1.778-0.796-1.778-1.778
					c0-0.982,0.796-1.778,1.778-1.778C49.597,366.556,50.393,367.352,50.393,368.333z"/>
				<path style="fill:#91C95B;" d="M107.875,448.63c0,2.291-1.857,4.148-4.148,4.148s-4.148-1.857-4.148-4.148
					c0-2.291,1.857-4.148,4.148-4.148S107.875,446.339,107.875,448.63z"/>
			</g>
			<g>
				<path style="fill:#79AA4F;" d="M484.541,389.556c8.556,10.167,15.222,7.722,15.611,3.833c0,0,8.389-0.667,6.389-5.389
					L484.541,389.556z"/>
				<g>
					<path style="fill:#FAE798;" d="M484.541,389.556c0,0,9.333,0.889,12.889,0.778c3.556-0.111,9.111-2.333,9.111-2.333
						s-5.111-7.222-7-4.556c0,0-2.111-7.222-7.333-6.556C486.986,377.556,484.541,389.556,484.541,389.556z"/>
					<path style="fill:#E8CF8E;" d="M497.43,390.333c3.555-0.111,9.111-2.333,9.111-2.333s-1.775-2.507-3.619-4.021
						c-2.018,3.946-4.825,0.688-4.825,0.688s-5.329,4.697-12.489,1.004c-0.716,2.169-1.067,3.885-1.067,3.885
						S493.875,390.444,497.43,390.333z"/>
				</g>
			</g>
			<g>
				<path style="fill:#79AA4F;" d="M342.681,448.642c10.778,12.808,19.177,9.728,19.667,4.829c0,0,10.568-0.84,8.048-6.789
					L342.681,448.642z"/>
				<g>
					<path style="fill:#FAE798;" d="M342.681,448.642c0,0,11.758,1.12,16.237,0.98c4.479-0.14,11.478-2.94,11.478-2.94
						s-6.439-9.098-8.819-5.739c0,0-2.659-9.098-9.238-8.259C345.76,433.524,342.681,448.642,342.681,448.642z"/>
					<path style="fill:#E8CF8E;" d="M358.918,449.621c4.479-0.14,11.478-2.94,11.478-2.94s-2.236-3.158-4.56-5.066
						c-2.542,4.971-6.078,0.867-6.078,0.867s-6.713,5.917-15.733,1.265c-0.903,2.733-1.344,4.894-1.344,4.894
						S354.439,449.761,358.918,449.621z"/>
				</g>
			</g>
			<g>
				<path style="fill:#79AA4F;" d="M500.467,396.333c0,0,1.778,5.926,18.815,4.148c17.037-1.778,0.296-6.074,0.296-6.074
					L500.467,396.333z"/>
				<path style="fill:#FAE798;" d="M500.467,396.333c0,0,10.667,3.852,19.111-1.926c0,0-0.741-3.407-9.037-4.741
					C502.245,388.333,500.467,396.333,500.467,396.333z"/>
				<path style="fill:#E8CF8E;" d="M519.578,394.407c0,0-0.414-1.861-3.977-3.371c-3.504,4.022-10.764,5.633-14.864,4.433
					c-0.189,0.52-0.27,0.864-0.27,0.864S511.134,400.185,519.578,394.407z"/>
			</g>
			<g>
				<path style="fill:#C9AE79;" d="M450.989,423.797c0,0,0.961,3.204,10.174,2.243c9.212-0.961,0.16-3.284,0.16-3.284
					L450.989,423.797z"/>
				<path style="fill:#E8CF8E;" d="M450.989,423.797c0,0,5.768,2.083,10.334-1.041c0,0-0.401-1.843-4.887-2.563
					C451.95,419.471,450.989,423.797,450.989,423.797z"/>
				<path style="fill:#D8BC7D;" d="M461.323,422.756c0,0-0.224-1.007-2.151-1.823c-1.895,2.175-5.82,3.046-8.037,2.397
					c-0.102,0.281-0.146,0.467-0.146,0.467S456.757,425.88,461.323,422.756z"/>
			</g>
			<g>
				<path style="fill:#C9AE79;" d="M442.963,426.1c0,0,0.577,1.922,6.103,1.346s0.096-1.97,0.096-1.97L442.963,426.1z"/>
				<path style="fill:#E8CF8E;" d="M442.963,426.1c0,0,3.46,1.249,6.199-0.625c0,0-0.24-1.105-2.931-1.538
					C443.54,423.505,442.963,426.1,442.963,426.1z"/>
				<path style="fill:#D8BC7D;" d="M449.162,425.475c0,0-0.134-0.604-1.29-1.093c-1.137,1.305-3.491,1.827-4.821,1.438
					c-0.061,0.169-0.087,0.28-0.087,0.28S446.423,427.349,449.162,425.475z"/>
			</g>
			<g>
				<path style="fill:#C9AE79;" d="M452.297,427.581c0,0,0.577,1.922,6.103,1.345c5.526-0.577,0.096-1.97,0.096-1.97
					L452.297,427.581z"/>
				<path style="fill:#E8CF8E;" d="M452.296,427.581c0,0,3.46,1.249,6.199-0.625c0,0-0.24-1.105-2.931-1.538
					S452.296,427.581,452.296,427.581z"/>
				<path style="fill:#D8BC7D;" d="M458.495,426.957c0,0-0.134-0.604-1.29-1.093c-1.137,1.305-3.491,1.827-4.821,1.438
					c-0.061,0.169-0.088,0.28-0.088,0.28S455.756,428.831,458.495,426.957z"/>
			</g>
			<path style="fill:#0E8971;" d="M253.208,354.778c0,0,7.111,7.556,43.333,15.556l-11.778-4.889c0,0-5.555-9.333-10.222-6.889
				c0,0-4.889-10-9.778-4C264.764,354.556,257.43,343.444,253.208,354.778z"/>
			<path style="fill:#0E8971;" d="M145.356,356.63l60.148-3.556c0,0-7.852-6.963-11.556-4.148c0,0-15.111-12.593-26.519-3.259
				c0,0-8-8.148-16,4.444C151.43,350.111,147.578,349.37,145.356,356.63z"/>
			<path style="fill:#0E8971;" d="M432.764,332.333l64.222-3.111c0,0-8.889-4.444-12.222-2.222c0,0-10.444-12-20.444-5.556
				c0,0-10.444-7.111-20.667,4.889C443.652,326.333,434.986,324.778,432.764,332.333z"/>
			<g>
				<g>
					<path style="fill:#E0BA5C;" d="M602.245,271l16.445,21.556l0.222,52.889c0,0,10,4.222,22.889,0V303l21.556-26.222l-3.111-2.667
						l-11.111,12.667l1.778-9.778l-2.445-0.444l-3.778,11.556l-6.667,6.444l6.889-27.111l-3.778-0.889l-8.889,28.222l-3.333-27.333
						l-4-0.222l3.778,26.444h-2.445l-9.555-31.333l-3.556,2l7.333,21.556l-13.333-16.667L602.245,271z"/>
					<g>
						<path style="fill:#C18F36;" d="M628.912,267.444l-4-0.222l3.558,24.91c1.193-0.228,2.314-0.495,3.356-0.787L628.912,267.444z"
							/>
						<path style="fill:#C18F36;" d="M660.245,274.111l-11.111,12.667l1.778-9.778l-2.445-0.444l-3.778,11.556l-6.667,6.444
							l6.889-27.111l-3.778-0.889l-7.649,24.285c0.188-0.061,0.376-0.123,0.557-0.185c0.727,8.678,1.537,18.421,1.537,18.789
							c0,0.479,0.115,24.172,0.18,37.444c1.917-0.294,3.941-0.755,6.043-1.444V303l21.556-26.222L660.245,274.111z"/>
						<path style="fill:#C18F36;" d="M625.901,292.54l-9.212-30.206l-3.555,2l7.333,21.556l-13.333-16.667L602.245,271
							l16.444,21.556l0.001,0.247C621.274,292.933,623.689,292.817,625.901,292.54z"/>
					</g>
				</g>
				<path style="fill:#E0BA5C;" d="M602.245,271l16.445,21.556l0.222,52.889c0,0,10,4.222,22.889,0V303l21.556-26.222l-3.111-2.667
					l-11.111,12.667l1.778-9.778l-2.445-0.444l-3.778,11.556l-6.667,6.444l6.889-27.111l-3.778-0.889l-8.889,28.222l-3.333-27.333
					l-4-0.222l3.778,26.444h-2.445l-9.555-31.333l-3.556,2l7.333,21.556l-13.333-16.667L602.245,271z"/>
				<path style="fill:#C18F36;" d="M628.912,267.444l-4-0.222l3.558,24.91c1.193-0.228,2.314-0.495,3.356-0.787L628.912,267.444z"/>
				<path style="fill:#C18F36;" d="M660.245,274.111l-11.111,12.667l1.778-9.778l-2.445-0.444l-3.778,11.556l-6.667,6.444
					l6.889-27.111l-3.778-0.889l-7.649,24.285c0.188-0.061,0.376-0.123,0.557-0.185c0.727,8.678,1.537,18.421,1.537,18.789
					c0,0.479,0.115,24.172,0.18,37.444c1.917-0.294,3.941-0.755,6.043-1.444V303l21.556-26.222L660.245,274.111z"/>
				<path style="fill:#C18F36;" d="M625.901,292.54l-9.212-30.206l-3.555,2l7.333,21.556l-13.333-16.667L602.245,271l16.444,21.556
					l0.001,0.247C621.274,292.933,623.689,292.817,625.901,292.54z"/>
				<g>
					<path style="fill:#448432;" d="M705.504,229.667c0-12.631-6.08-23.841-15.472-30.866c0.424-2.29,0.657-4.647,0.657-7.06
						c0-21.273-17.245-38.519-38.518-38.519c-4.481,0-8.78,0.773-12.78,2.18c-5.658-3.265-12.218-5.143-19.22-5.143
						c-21.273,0-38.519,17.245-38.519,38.519c0,0.492,0.019,0.979,0.037,1.466c-9.556,9.911-15.444,23.383-15.444,38.238
						c0,30.437,24.674,55.111,55.111,55.111c7.141,0,13.958-1.373,20.221-3.845c4.72,3.176,10.403,5.031,16.52,5.031
						c13.742,0,25.295-9.356,28.646-22.045C697.979,256.005,705.504,243.716,705.504,229.667z"/>
					<path style="fill:#659944;" d="M671.57,201.119c-0.256-8.263-6.511-15.337-14.683-16.584c-0.158-0.024-0.316-0.046-0.473-0.066
						c-2.436-0.305-3.997-2.588-3.609-5.012c0.075-0.465,0.111-0.944,0.107-1.431c-0.045-4.533-3.859-8.332-8.393-8.359
						c-1.473-0.009-2.859,0.36-4.068,1.015c-0.17-6.233-5.265-11.237-11.539-11.237c-4.062,0-7.627,2.1-9.688,5.269
						c-3.733-3.868-9.111-6.139-15.017-5.647c-8.868,0.738-16.096,7.866-16.979,16.721c-0.007,0.07-0.014,0.141-0.02,0.211
						c-0.448,5.062-2.783,9.711-6.574,13.095c-3.816,3.406-6.344,8.221-6.766,13.632c-6.408,3.681-10.733,10.577-10.733,18.497
						c0,11.782,9.551,21.333,21.333,21.333c0.863,0,1.709-0.066,2.545-0.166c4.452,6.03,11.606,9.943,19.677,9.943
						c5.13,0,9.889-1.583,13.821-4.284c5.408,6.574,13.799,10.6,23.104,10.004c13.872-0.888,25.06-12.289,25.711-26.174
						c0.07-1.482,0.021-2.94-0.135-4.365c-0.793-7.204-0.022-14.435,1.822-21.444C671.425,204.496,671.623,202.835,671.57,201.119z"
						/>
					<g>
						<path style="fill:#79AA4F;" d="M637.229,189.681c0.514-0.747,0.794-1.534,0.794-2.348c0-2.52-2.638-4.79-6.857-6.391
							c3.034-0.636,5.079-1.813,5.079-3.165c0-2.025-4.577-3.667-10.222-3.667c-0.154,0-0.304,0.006-0.457,0.008
							c-0.134-3.082-6.19-5.564-13.654-5.564c-7.548,0-13.667,2.537-13.667,5.667c0,1.261,1.005,2.422,2.685,3.363
							c-2.629,0.643-4.463,2.078-4.463,3.748c0,0.626,0.265,1.217,0.725,1.748c-1.734,1.26-2.725,2.709-2.725,4.252
							c0,1.788,1.33,3.45,3.607,4.837c-8.098,1.667-13.607,4.946-13.607,8.718c0,5.462,11.541,9.889,25.778,9.889
							c5.776,0,11.109-0.729,15.407-1.96c3.164,1.096,6.956,1.738,11.038,1.738c11.046,0,20-4.676,20-10.445
							C656.689,194.438,648.023,189.832,637.229,189.681z"/>
						<path style="fill:#79AA4F;" d="M646.134,186.778c0.92,0,1.667-0.348,1.667-0.778s-0.746-0.778-1.667-0.778
							c-0.921,0-1.667,0.348-1.667,0.778S645.214,186.778,646.134,186.778z"/>
						<path style="fill:#79AA4F;" d="M598.578,217.222c-5.707,0-10.333,1.89-10.333,4.222c0,2.332,4.626,4.222,10.333,4.222
							c5.707,0,10.333-1.89,10.333-4.222C608.912,219.113,604.285,217.222,598.578,217.222z"/>
						<path style="fill:#79AA4F;" d="M625.578,220.556c-5.154,0-9.333,1.99-9.333,4.444s4.179,4.444,9.333,4.444
							c5.155,0,9.333-1.99,9.333-4.444S630.733,220.556,625.578,220.556z"/>
					</g>
				</g>
				<path style="fill:#3B7229;" d="M690.033,198.801c0.424-2.29,0.657-4.647,0.657-7.06c0-19.429-14.387-35.49-33.087-38.13
					c-9.285,8.692-15.17,20.973-15.415,34.639c-0.425,0.438-0.851,0.875-1.309,1.284c-3.935,3.512-6.785,8.212-7.989,13.538
					c-1.029,1.683-1.985,3.414-2.872,5.187c-6.799,4.889-11.244,12.842-11.244,21.856c0,5.275,1.522,10.193,4.142,14.348
					c1.157,15.718,7.535,29.979,17.401,41.066l1.441-5.671c1.505,0.997,3.111,1.85,4.792,2.563l-1.86,5.689l-0.988,0.955
					c1.761,1.72,3.61,3.349,5.545,4.875l6.471-7.872l1.102-1.34c0.425,0.018,0.847,0.048,1.277,0.048
					c13.742,0,25.295-9.356,28.646-22.045c11.237-6.728,18.762-19.017,18.762-33.067
					C705.504,217.036,699.425,205.825,690.033,198.801z M649.134,286.778l0.584-3.215c0.598,0.176,1.201,0.342,1.814,0.481
					L649.134,286.778z"/>
				<path style="fill:#845E21;" d="M651.583,283.986l-2.449,2.792l0.6-3.301c-1.031-0.32-2.082-0.706-3.151-1.159l-0.034,0.104
					l-1.86,5.689l-0.988,0.955c1.761,1.72,3.61,3.349,5.545,4.875l4.761-5.792l1.711-2.081l0.329-0.4l0.756-0.92
					C655.129,284.669,653.387,284.423,651.583,283.986z"/>
				<path style="fill:#845E21;" d="M640.316,285.53l1.441-5.671l-4.881,1.469C637.972,282.772,639.113,284.179,640.316,285.53z"/>
			</g>
			<g>
				<g>
					<path style="fill:#E0BA5C;" d="M681.065,292.103l20.771,27.227l0.281,66.805c0,0,12.631,5.333,28.911,0v-53.613l27.227-33.122
						l-3.93-3.368l-14.035,16l2.245-12.35l-3.088-0.561l-4.772,14.596l-8.421,8.14l8.701-34.245l-4.772-1.123l-11.228,35.648
						l-4.21-34.525l-5.052-0.281l4.772,33.403h-3.088l-12.07-39.578l-4.491,2.526l9.263,27.227l-16.842-21.052L681.065,292.103z"/>
					<g>
						<path style="fill:#C18F36;" d="M714.748,287.612l-5.052-0.281l4.495,31.464c1.507-0.288,2.923-0.625,4.239-0.994
							L714.748,287.612z"/>
						<path style="fill:#C18F36;" d="M754.326,296.033l-14.035,16l2.245-12.351l-3.088-0.561l-4.772,14.596l-8.421,8.14
							l8.701-34.245l-4.772-1.123l-9.662,30.676c0.237-0.078,0.474-0.155,0.703-0.234c0.918,10.961,1.941,23.268,1.941,23.732
							c0,0.606,0.145,30.532,0.227,47.296c2.422-0.372,4.977-0.954,7.633-1.824v-53.613l27.227-33.122L754.326,296.033z"/>
						<path style="fill:#C18F36;" d="M710.946,319.31l-11.636-38.154l-4.491,2.526l9.263,27.227l-16.841-21.052l-6.175,2.246
							l20.771,27.227l0.001,0.312C705.101,319.808,708.151,319.661,710.946,319.31z"/>
					</g>
				</g>
				<g>
					<path style="fill:#448432;" d="M811.494,239.894c0-15.954-7.679-30.115-19.543-38.987c0.536-2.893,0.83-5.87,0.83-8.918
						c0-26.871-21.783-48.654-48.654-48.654c-5.66,0-11.09,0.977-16.143,2.754c-7.147-4.125-15.432-6.497-24.277-6.497
						c-26.871,0-48.654,21.783-48.654,48.654c0,0.621,0.024,1.236,0.047,1.851c-12.071,12.519-19.508,29.536-19.508,48.299
						c0,38.446,31.167,69.612,69.612,69.612c9.02,0,17.631-1.734,25.541-4.857c5.962,4.012,13.141,6.354,20.867,6.354
						c17.357,0,31.95-11.818,36.183-27.845C801.989,273.163,811.494,257.641,811.494,239.894z"/>
					<path style="fill:#659944;" d="M768.631,203.835c-0.323-10.437-8.224-19.373-18.547-20.948c-0.2-0.031-0.399-0.058-0.597-0.083
						c-3.077-0.385-5.049-3.269-4.558-6.331c0.094-0.588,0.141-1.192,0.135-1.808c-0.057-5.726-4.874-10.524-10.601-10.558
						c-1.861-0.011-3.611,0.455-5.138,1.282c-0.215-7.874-6.65-14.194-14.576-14.194c-5.13,0-9.634,2.653-12.237,6.656
						c-4.716-4.886-11.509-7.754-18.968-7.133c-11.202,0.933-20.331,9.936-21.447,21.121c-0.009,0.089-0.017,0.178-0.025,0.267
						c-0.566,6.393-3.516,12.266-8.304,16.54c-4.82,4.302-8.014,10.385-8.547,17.219c-8.094,4.649-13.558,13.36-13.558,23.363
						c0,14.882,12.064,26.947,26.947,26.947c1.09,0,2.159-0.084,3.215-0.209c5.623,7.617,14.66,12.56,24.854,12.56
						c6.48,0,12.491-2,17.458-5.411c6.83,8.303,17.43,13.389,29.183,12.636c17.523-1.122,31.653-15.522,32.476-33.061
						c0.088-1.872,0.027-3.714-0.171-5.514c-1.002-9.099-0.028-18.234,2.301-27.086
						C768.448,208.101,768.698,206.003,768.631,203.835z"/>
					<ellipse style="fill:#659944;" cx="770.838" cy="232.037" rx="20.889" ry="14.815"/>
					<ellipse style="fill:#659944;" cx="769.801" cy="215.889" rx="13.037" ry="11.704"/>
					<ellipse style="fill:#659944;" cx="756.912" cy="176.482" rx="4.889" ry="3.407"/>
					<circle style="fill:#659944;" cx="754.245" cy="165.815" r="6.667"/>
					<circle style="fill:#659944;" cx="771.875" cy="203.889" r="8"/>
					<circle style="fill:#659944;" cx="775.134" cy="259.593" r="8"/>
					<ellipse style="fill:#79AA4F;" cx="688.171" cy="229.667" rx="31.556" ry="14.519"/>
					<ellipse style="fill:#79AA4F;" cx="721.949" cy="232.037" rx="16.148" ry="8.889"/>
					<ellipse style="fill:#79AA4F;" cx="763.282" cy="226.111" rx="9.778" ry="5.037"/>
					<ellipse style="fill:#79AA4F;" cx="755.43" cy="212.037" rx="4.889" ry="3.111"/>
					<ellipse style="fill:#79AA4F;" cx="714.69" cy="199.444" rx="29.926" ry="13.63"/>
					<ellipse style="fill:#79AA4F;" cx="728.764" cy="217.518" rx="25.926" ry="9.481"/>
					<ellipse style="fill:#79AA4F;" cx="658.838" cy="211.593" rx="8.148" ry="2.963"/>
					<ellipse style="fill:#79AA4F;" cx="704.023" cy="216.481" rx="21.037" ry="9.333"/>
					<path style="fill:#79AA4F;" d="M680.615,198.259c0,1.964-2.919,3.556-6.518,3.556c-3.6,0-6.519-1.592-6.519-3.556
						c0-1.964,2.919-3.556,6.519-3.556C677.697,194.704,680.615,196.296,680.615,198.259z"/>
					<ellipse style="fill:#79AA4F;" cx="701.652" cy="175.889" rx="10.37" ry="3.407"/>
					<path style="fill:#79AA4F;" d="M757.652,197.667c0,3.109-4.378,5.63-9.778,5.63c-5.4,0-9.778-2.52-9.778-5.63
						c0-3.109,4.378-5.63,9.778-5.63C753.275,192.037,757.652,194.557,757.652,197.667z"/>
					<ellipse style="fill:#79AA4F;" cx="689.504" cy="209.667" rx="8.593" ry="4.296"/>
					<path style="fill:#79AA4F;" d="M690.393,180.482c0,1.964-2.521,3.555-5.63,3.555c-3.109,0-5.63-1.592-5.63-3.555
						s2.521-3.556,5.63-3.556C687.873,176.926,690.393,178.518,690.393,180.482z"/>
					<path style="fill:#79AA4F;" d="M736.319,172.778c0,3.273-2.653,5.926-5.926,5.926c-3.273,0-5.926-2.653-5.926-5.926
						s2.653-5.926,5.926-5.926C733.666,166.852,736.319,169.505,736.319,172.778z"/>
					<path style="fill:#79AA4F;" d="M720.023,185.074c0,1.555-2.786,2.815-6.222,2.815c-3.436,0-6.222-1.26-6.222-2.815
						s2.786-2.815,6.222-2.815C717.237,182.259,720.023,183.52,720.023,185.074z"/>
					<path style="fill:#79AA4F;" d="M738.393,256.333c0,2.291-3.781,4.148-8.445,4.148c-4.664,0-8.444-1.857-8.444-4.148
						c0-2.291,3.781-4.148,8.444-4.148C734.613,252.185,738.393,254.042,738.393,256.333z"/>
					<ellipse style="fill:#79AA4F;" cx="646.69" cy="228.333" rx="4.593" ry="3.111"/>
				</g>
			</g>
			<g>
				<g>
					<path style="fill:#4C873C;" d="M171.441,384.579c0,0.788-1.964,1.426-4.388,1.426c-2.423,0-4.388-0.639-4.388-1.426
						s1.964-1.426,4.388-1.426C169.477,383.153,171.441,383.791,171.441,384.579z"/>
					<ellipse style="fill:#4C873C;" cx="151.814" cy="384.579" rx="4.388" ry="1.426"/>
					<ellipse style="fill:#4C873C;" cx="159.22" cy="382.336" rx="8.627" ry="2.804"/>
					<g>
						<path style="fill:#E5A495;" d="M156.515,376.434c-3.371-3.008-8.564-1.901-8.564-1.901s-0.513,5.285,2.858,8.293
							c3.371,3.008,8.564,1.901,8.564,1.901S159.886,379.442,156.515,376.434z"/>
						<path style="fill:#E5A495;" d="M170.505,374.122c0,0-5.23-0.918-8.489,2.212c-3.259,3.129-2.554,8.392-2.554,8.392
							s5.23,0.918,8.489-2.211C171.209,379.385,170.505,374.122,170.505,374.122z"/>
						<path style="fill:#DB9191;" d="M170.532,376.351c-5.04,8.694-8.519,4.139-9.822,1.668c-1.738,3.034-1.248,6.706-1.248,6.706
							s5.23,0.918,8.489-2.211C169.844,380.696,170.398,378.159,170.532,376.351z"/>
						<path style="fill:#DB9191;" d="M147.978,376.762c5.353,8.505,8.664,3.825,9.876,1.309c1.848,2.968,1.492,6.656,1.492,6.656
							s-5.193,1.108-8.564-1.901C148.823,381.079,148.176,378.564,147.978,376.762z"/>
						<path style="fill:#F3D5AD;" d="M159.128,368.813c0,0-4.494,3.418-4.407,8.222s4.703,8.056,4.703,8.056
							s4.494-3.418,4.407-8.222C163.744,372.065,159.128,368.813,159.128,368.813z"/>
						<path style="fill:#E5C2A5;" d="M159.424,385.091c0,0,4.494-3.418,4.407-8.222c-0.009-0.472-0.062-0.928-0.149-1.368
							c-0.446,1.577-2.138,7.016-4.251,7.055c-2.468,0.045-4.544-7.203-4.55-7.223c-0.111,0.544-0.17,1.113-0.159,1.703
							C154.809,381.839,159.424,385.091,159.424,385.091z"/>
					</g>
					<ellipse style="fill:#4C873C;" cx="159.088" cy="387.152" rx="8.627" ry="2.804"/>
				</g>
				<g>
					<path style="fill:#4C873C;" d="M298.553,446.357c0,0.788-1.965,1.426-4.388,1.426c-2.423,0-4.388-0.639-4.388-1.426
						s1.965-1.426,4.388-1.426C296.588,444.931,298.553,445.569,298.553,446.357z"/>
					<ellipse style="fill:#4C873C;" cx="278.925" cy="446.357" rx="4.388" ry="1.426"/>
					<ellipse style="fill:#4C873C;" cx="286.331" cy="444.114" rx="8.627" ry="2.804"/>
					<g>
						<path style="fill:#E5A495;" d="M283.627,438.212c-3.371-3.008-8.564-1.901-8.564-1.901s-0.513,5.285,2.858,8.293
							c3.371,3.008,8.564,1.901,8.564,1.901S286.997,441.22,283.627,438.212z"/>
						<path style="fill:#E5A495;" d="M297.616,435.9c0,0-5.23-0.918-8.489,2.212c-3.259,3.129-2.554,8.392-2.554,8.392
							s5.23,0.918,8.489-2.212C298.32,441.163,297.616,435.9,297.616,435.9z"/>
						<path style="fill:#DB9191;" d="M297.643,438.129c-5.04,8.694-8.519,4.139-9.822,1.668c-1.738,3.034-1.248,6.706-1.248,6.706
							s5.23,0.918,8.489-2.212C296.955,442.474,297.51,439.937,297.643,438.129z"/>
						<path style="fill:#DB9191;" d="M275.089,438.54c5.353,8.505,8.664,3.826,9.876,1.309c1.848,2.968,1.492,6.656,1.492,6.656
							s-5.193,1.108-8.564-1.901C275.934,442.857,275.287,440.342,275.089,438.54z"/>
						<path style="fill:#F3D5AD;" d="M286.239,430.591c0,0-4.494,3.418-4.407,8.222c0.087,4.804,4.703,8.056,4.703,8.056
							s4.494-3.418,4.407-8.222C290.855,433.843,286.239,430.591,286.239,430.591z"/>
						<path style="fill:#E5C2A5;" d="M286.535,446.868c0,0,4.494-3.418,4.407-8.222c-0.009-0.472-0.062-0.928-0.15-1.368
							c-0.446,1.577-2.138,7.016-4.251,7.055c-2.468,0.045-4.544-7.203-4.55-7.223c-0.111,0.544-0.17,1.113-0.159,1.703
							C281.92,443.616,286.535,446.868,286.535,446.868z"/>
					</g>
					<ellipse style="fill:#4C873C;" cx="286.199" cy="448.93" rx="8.627" ry="2.804"/>
				</g>
				<g>
					<path style="fill:#4C873C;" d="M43.15,365.432c0,0.788-1.965,1.426-4.388,1.426c-2.423,0-4.388-0.639-4.388-1.426
						s1.964-1.426,4.388-1.426C41.185,364.006,43.15,364.645,43.15,365.432z"/>
					<ellipse style="fill:#4C873C;" cx="23.522" cy="365.432" rx="4.388" ry="1.426"/>
					<ellipse style="fill:#4C873C;" cx="30.928" cy="363.189" rx="8.627" ry="2.804"/>
					<g>
						<path style="fill:#E5A495;" d="M28.224,357.287c-3.371-3.008-8.564-1.901-8.564-1.901s-0.513,5.285,2.858,8.293
							c3.371,3.008,8.564,1.901,8.564,1.901S31.595,360.296,28.224,357.287z"/>
						<path style="fill:#E5A495;" d="M42.213,354.975c0,0-5.23-0.918-8.489,2.212c-3.259,3.129-2.554,8.392-2.554,8.392
							s5.23,0.918,8.489-2.212C42.918,360.238,42.213,354.975,42.213,354.975z"/>
						<path style="fill:#DB9191;" d="M42.24,357.205c-5.04,8.694-8.519,4.139-9.822,1.668c-1.738,3.034-1.248,6.706-1.248,6.706
							s5.23,0.918,8.489-2.212C41.552,361.549,42.107,359.013,42.24,357.205z"/>
						<path style="fill:#DB9191;" d="M19.686,357.616c5.353,8.505,8.664,3.825,9.876,1.309c1.848,2.968,1.492,6.656,1.492,6.656
							s-5.193,1.108-8.564-1.901C20.531,361.932,19.885,359.417,19.686,357.616z"/>
						<path style="fill:#F3D5AD;" d="M30.836,349.667c0,0-4.494,3.418-4.407,8.222c0.088,4.804,4.703,8.056,4.703,8.056
							s4.494-3.418,4.407-8.222C35.452,352.919,30.836,349.667,30.836,349.667z"/>
						<path style="fill:#E5C2A5;" d="M31.133,365.944c0,0,4.494-3.418,4.407-8.222c-0.009-0.472-0.062-0.928-0.15-1.368
							c-0.446,1.577-2.138,7.016-4.251,7.055c-2.468,0.045-4.544-7.203-4.55-7.223c-0.111,0.544-0.17,1.113-0.159,1.703
							C26.517,362.692,31.133,365.944,31.133,365.944z"/>
					</g>
					<ellipse style="fill:#4C873C;" cx="30.796" cy="368.005" rx="8.627" ry="2.804"/>
				</g>
				<g>
					<path style="fill:#4C873C;" d="M145.749,417.182c0,1.464-3.65,2.65-8.153,2.65c-4.503,0-8.153-1.186-8.153-2.65
						c0-1.463,3.65-2.65,8.153-2.65C142.099,414.533,145.749,415.719,145.749,417.182z"/>
					<path style="fill:#4C873C;" d="M117.432,417.182c0,1.464-3.65,2.65-8.153,2.65c-4.503,0-8.153-1.186-8.153-2.65
						c0-1.463,3.65-2.65,8.153-2.65C113.782,414.533,117.432,415.719,117.432,417.182z"/>
					<path style="fill:#4C873C;" d="M139.071,413.015c0,2.877-7.177,5.21-16.03,5.21s-16.03-2.332-16.03-5.21
						c0-2.877,7.177-5.21,16.03-5.21S139.071,410.137,139.071,413.015z"/>
					<g>
						<path style="fill:#E5A495;" d="M118.016,402.048c-6.263-5.59-15.912-3.532-15.912-3.532s-0.952,9.82,5.311,15.41
							c6.263,5.59,15.912,3.532,15.912,3.532S124.279,407.638,118.016,402.048z"/>
						<path style="fill:#E5A495;" d="M144.009,397.753c0,0-9.717-1.705-15.773,4.109c-6.056,5.814-4.746,15.593-4.746,15.593
							s9.717,1.705,15.773-4.109C145.318,407.532,144.009,397.753,144.009,397.753z"/>
						<path style="fill:#DB9191;" d="M144.059,401.895c-9.365,16.154-15.829,7.69-18.249,3.1c-3.23,5.637-2.319,12.461-2.319,12.461
							s9.717,1.705,15.773-4.109C142.781,409.968,143.811,405.254,144.059,401.895z"/>
						<path style="fill:#DB9191;" d="M102.152,402.659c9.947,15.802,16.098,7.108,18.35,2.433
							c3.433,5.515,2.772,12.368,2.772,12.368s-9.649,2.058-15.912-3.532C103.722,410.68,102.521,406.007,102.152,402.659z"/>
						<path style="fill:#F3D5AD;" d="M122.87,387.889c0,0-8.351,6.351-8.188,15.276c0.163,8.926,8.739,14.968,8.739,14.968
							s8.351-6.351,8.188-15.276C131.446,393.931,122.87,387.889,122.87,387.889z"/>
						<path style="fill:#E5C2A5;" d="M123.421,418.133c0,0,8.351-6.351,8.188-15.276c-0.016-0.876-0.116-1.724-0.278-2.542
							c-0.83,2.931-3.973,13.036-7.899,13.108c-4.586,0.084-8.444-13.383-8.455-13.421c-0.205,1.011-0.315,2.068-0.295,3.164
							C114.844,412.091,123.421,418.133,123.421,418.133z"/>
					</g>
					<path style="fill:#4C873C;" d="M138.825,421.963c0,2.877-7.177,5.21-16.03,5.21c-8.853,0-16.03-2.332-16.03-5.21
						c0-2.877,7.177-5.21,16.03-5.21C131.648,416.754,138.825,419.086,138.825,421.963z"/>
				</g>
				<g>
					<path style="fill:#4C873C;" d="M247.527,429.182c0,1.464-3.65,2.65-8.153,2.65c-4.503,0-8.153-1.186-8.153-2.65
						c0-1.463,3.65-2.65,8.153-2.65C243.877,426.533,247.527,427.719,247.527,429.182z"/>
					<path style="fill:#4C873C;" d="M219.21,429.182c0,1.464-3.65,2.65-8.153,2.65s-8.153-1.186-8.153-2.65
						c0-1.463,3.65-2.65,8.153-2.65S219.21,427.719,219.21,429.182z"/>
					<path style="fill:#4C873C;" d="M240.848,425.015c0,2.877-7.177,5.21-16.03,5.21c-8.853,0-16.03-2.332-16.03-5.21
						c0-2.877,7.177-5.21,16.03-5.21C233.671,419.805,240.848,422.137,240.848,425.015z"/>
					<g>
						<path style="fill:#E5A495;" d="M219.793,414.048c-6.263-5.59-15.912-3.532-15.912-3.532s-0.952,9.82,5.311,15.41
							c6.263,5.59,15.912,3.532,15.912,3.532S226.057,419.638,219.793,414.048z"/>
						<path style="fill:#E5A495;" d="M245.787,409.753c0,0-9.717-1.705-15.773,4.109c-6.055,5.814-4.746,15.593-4.746,15.593
							s9.717,1.705,15.773-4.109C247.096,419.532,245.787,409.753,245.787,409.753z"/>
						<path style="fill:#DB9191;" d="M245.837,413.895c-9.365,16.154-15.829,7.69-18.249,3.1c-3.23,5.637-2.319,12.461-2.319,12.461
							s9.717,1.705,15.773-4.109C244.559,421.968,245.589,417.254,245.837,413.895z"/>
						<path style="fill:#DB9191;" d="M203.929,414.659c9.947,15.802,16.098,7.108,18.35,2.433
							c3.433,5.515,2.772,12.368,2.772,12.368s-9.649,2.058-15.912-3.532C205.5,422.68,204.299,418.007,203.929,414.659z"/>
						<path style="fill:#F3D5AD;" d="M224.647,399.889c0,0-8.351,6.351-8.188,15.276c0.162,8.926,8.739,14.968,8.739,14.968
							s8.351-6.351,8.188-15.276C233.224,405.931,224.647,399.889,224.647,399.889z"/>
						<path style="fill:#E5C2A5;" d="M225.198,430.133c0,0,8.351-6.351,8.188-15.276c-0.016-0.876-0.116-1.724-0.278-2.542
							c-0.83,2.931-3.973,13.036-7.9,13.108c-4.586,0.084-8.444-13.383-8.455-13.421c-0.206,1.011-0.315,2.068-0.295,3.164
							C216.622,424.091,225.198,430.133,225.198,430.133z"/>
					</g>
					<path style="fill:#4C873C;" d="M240.603,433.963c0,2.877-7.177,5.21-16.03,5.21c-8.853,0-16.03-2.332-16.03-5.21
						c0-2.877,7.177-5.21,16.03-5.21C233.426,428.754,240.603,431.086,240.603,433.963z"/>
				</g>
				<g>
					<ellipse style="fill:#4C873C;" cx="23.533" cy="410.9" rx="7.476" ry="2.43"/>
					<ellipse style="fill:#4C873C;" cx="-2.435" cy="410.9" rx="7.477" ry="2.43"/>
					<ellipse style="fill:#4C873C;" cx="10.184" cy="407.078" rx="14.7" ry="4.778"/>
					<g>
						<path style="fill:#E5A495;" d="M5.577,397.022c-5.744-5.126-14.592-3.239-14.592-3.239s-0.873,9.005,4.87,14.131
							c5.744,5.126,14.592,3.239,14.592,3.239S11.32,402.148,5.577,397.022z"/>
						<path style="fill:#E5A495;" d="M29.413,393.083c0,0-8.911-1.564-14.464,3.768c-5.553,5.332-4.352,14.299-4.352,14.299
							s8.911,1.564,14.464-3.768C30.614,402.05,29.413,393.083,29.413,393.083z"/>
						<path style="fill:#DB9191;" d="M29.459,396.881c-8.588,14.814-14.516,7.052-16.735,2.842
							c-2.962,5.169-2.127,11.427-2.127,11.427s8.911,1.564,14.464-3.768C28.287,404.284,29.232,399.962,29.459,396.881z"/>
						<path style="fill:#DB9191;" d="M-8.971,397.581c9.122,14.491,14.763,6.518,16.828,2.231
							c3.148,5.058,2.542,11.342,2.542,11.342s-8.848,1.888-14.592-3.239C-7.531,404.937-8.633,400.651-8.971,397.581z"/>
						<path style="fill:#F3D5AD;" d="M10.028,384.037c0,0-7.658,5.824-7.509,14.009c0.149,8.185,8.014,13.726,8.014,13.726
							s7.658-5.824,7.509-14.009C17.893,389.578,10.028,384.037,10.028,384.037z"/>
						<path style="fill:#E5C2A5;" d="M10.533,411.772c0,0,7.658-5.824,7.509-14.009c-0.015-0.804-0.106-1.581-0.255-2.331
							c-0.761,2.687-3.643,11.955-7.244,12.021C6.338,407.529,2.8,395.18,2.79,395.145c-0.188,0.927-0.289,1.896-0.271,2.901
							C2.668,406.231,10.533,411.772,10.533,411.772z"/>
					</g>
					<ellipse style="fill:#4C873C;" cx="9.96" cy="415.284" rx="14.7" ry="4.778"/>
				</g>
				<g>
					<path style="fill:#4C873C;" d="M87.414,387.827c0,1.048-2.614,1.897-5.838,1.897c-3.224,0-5.838-0.85-5.838-1.897
						c0-1.048,2.614-1.897,5.838-1.897C84.8,385.93,87.414,386.779,87.414,387.827z"/>
					<path style="fill:#4C873C;" d="M67.137,387.827c0,1.048-2.614,1.897-5.838,1.897c-3.224,0-5.838-0.85-5.838-1.897
						c0-1.048,2.614-1.897,5.838-1.897C64.524,385.93,67.137,386.779,67.137,387.827z"/>
					<ellipse style="fill:#4C873C;" cx="71.153" cy="384.843" rx="11.478" ry="3.73"/>
					<g>
						<path style="fill:#E5A495;" d="M67.555,376.991c-4.485-4.003-11.394-2.529-11.394-2.529s-0.682,7.031,3.803,11.034
							c4.485,4.003,11.394,2.529,11.394,2.529S72.04,380.993,67.555,376.991z"/>
						<path style="fill:#E5A495;" d="M86.167,373.915c0,0-6.958-1.221-11.294,2.942c-4.336,4.163-3.398,11.165-3.398,11.165
							s6.958,1.221,11.294-2.942C87.105,380.917,86.167,373.915,86.167,373.915z"/>
						<path style="fill:#DB9191;" d="M86.203,376.881c-6.706,11.567-11.334,5.506-13.067,2.22c-2.313,4.036-1.661,8.922-1.661,8.922
							s6.958,1.221,11.294-2.942C85.288,382.661,86.026,379.286,86.203,376.881z"/>
						<path style="fill:#DB9191;" d="M56.196,377.427c7.122,11.315,11.527,5.09,13.139,1.742c2.458,3.949,1.985,8.856,1.985,8.856
							s-6.909,1.474-11.394-2.529C57.321,383.171,56.46,379.825,56.196,377.427z"/>
						<path style="fill:#F3D5AD;" d="M71.031,366.852c0,0-5.979,4.547-5.863,10.938c0.116,6.391,6.257,10.718,6.257,10.718
							s5.979-4.547,5.863-10.939C77.172,371.178,71.031,366.852,71.031,366.852z"/>
						<path style="fill:#E5C2A5;" d="M71.425,388.508c0,0,5.979-4.547,5.863-10.939c-0.011-0.628-0.083-1.234-0.199-1.82
							c-0.594,2.098-2.845,9.335-5.656,9.386c-3.284,0.06-6.046-9.583-6.054-9.61c-0.147,0.724-0.226,1.481-0.211,2.265
							C65.284,384.181,71.425,388.508,71.425,388.508z"/>
					</g>
					<path style="fill:#4C873C;" d="M82.456,391.25c0,2.06-5.139,3.73-11.478,3.73c-6.339,0-11.478-1.67-11.478-3.73
						s5.139-3.73,11.478-3.73C77.317,387.52,82.456,389.19,82.456,391.25z"/>
				</g>
				<g>
					<ellipse style="fill:#4C873C;" cx="198.064" cy="463.668" rx="9.958" ry="3.236"/>
					<ellipse style="fill:#4C873C;" cx="163.478" cy="463.668" rx="9.958" ry="3.236"/>
					<path style="fill:#4C873C;" d="M199.865,458.577c0,3.514-8.766,6.363-19.579,6.363c-10.813,0-19.579-2.849-19.579-6.363
						c0-3.514,8.766-6.363,19.579-6.363C191.099,452.214,199.865,455.063,199.865,458.577z"/>
					<g>
						<path style="fill:#E5A495;" d="M174.149,445.183c-7.65-6.827-19.435-4.314-19.435-4.314s-1.163,11.994,6.487,18.821
							c7.65,6.827,19.434,4.314,19.434,4.314S181.799,452.01,174.149,445.183z"/>
						<path style="fill:#E5A495;" d="M205.896,439.937c0,0-11.869-2.083-19.265,5.019c-7.396,7.101-5.797,19.045-5.797,19.045
							s11.869,2.083,19.265-5.019C207.495,451.88,205.896,439.937,205.896,439.937z"/>
						<path style="fill:#DB9191;" d="M205.957,444.996c-11.438,19.731-19.333,9.392-22.289,3.786
							c-3.945,6.884-2.833,15.219-2.833,15.219s11.869,2.083,19.265-5.019C204.396,454.856,205.655,449.098,205.957,444.996z"/>
						<path style="fill:#DB9191;" d="M154.773,445.928c12.149,19.301,19.662,8.681,22.413,2.971
							c4.193,6.736,3.385,15.106,3.385,15.106s-11.785,2.514-19.435-4.313C156.691,455.725,155.224,450.017,154.773,445.928z"/>
						<path style="fill:#F3D5AD;" d="M180.077,427.889c0,0-10.199,7.757-10.001,18.658c0.199,10.902,10.674,18.282,10.674,18.282
							s10.199-7.757,10.001-18.658C190.552,435.269,180.077,427.889,180.077,427.889z"/>
						<path style="fill:#E5C2A5;" d="M180.75,464.829c0,0,10.199-7.757,10.001-18.658c-0.02-1.07-0.141-2.106-0.339-3.105
							c-1.013,3.579-4.852,15.922-9.648,16.01c-5.601,0.102-10.313-16.346-10.327-16.393c-0.251,1.235-0.385,2.525-0.361,3.864
							C170.275,457.449,180.75,464.829,180.75,464.829z"/>
					</g>
					<ellipse style="fill:#4C873C;" cx="179.986" cy="469.507" rx="19.579" ry="6.363"/>
				</g>
				<g>
					<path style="fill:#4C873C;" d="M97.186,458.767c0,1.868-4.66,3.383-10.408,3.383c-5.748,0-10.408-1.514-10.408-3.383
						c0-1.868,4.66-3.383,10.408-3.383C92.526,455.385,97.186,456.899,97.186,458.767z"/>
					<path style="fill:#4C873C;" d="M61.035,458.767c0,1.868-4.66,3.383-10.408,3.383c-5.748,0-10.408-1.514-10.408-3.383
						c0-1.868,4.66-3.383,10.408-3.383C56.375,455.385,61.035,456.899,61.035,458.767z"/>
					<ellipse style="fill:#4C873C;" cx="68.195" cy="453.447" rx="20.464" ry="6.651"/>
					<g>
						<path style="fill:#E5A495;" d="M61.78,439.447c-7.996-7.136-20.314-4.508-20.314-4.508s-1.216,12.536,6.78,19.672
							c7.996,7.136,20.314,4.509,20.314,4.509S69.776,446.583,61.78,439.447z"/>
						<path style="fill:#E5A495;" d="M94.964,433.963c0,0-12.406-2.177-20.136,5.246c-7.731,7.423-6.059,19.906-6.059,19.906
							s12.405,2.177,20.136-5.246C96.635,446.447,94.964,433.963,94.964,433.963z"/>
						<path style="fill:#DB9191;" d="M95.028,439.251c-11.955,20.623-20.207,9.817-23.298,3.957
							c-4.123,7.196-2.961,15.908-2.961,15.908s12.405,2.177,20.136-5.246C93.396,449.557,94.712,443.539,95.028,439.251z"/>
						<path style="fill:#DB9191;" d="M41.528,440.226c12.699,20.174,20.552,9.074,23.426,3.106
							c4.383,7.041,3.538,15.789,3.538,15.789s-12.318,2.628-20.314-4.508C43.533,450.466,41.999,444.5,41.528,440.226z"/>
						<path style="fill:#F3D5AD;" d="M67.977,421.37c0,0-10.661,8.108-10.453,19.502c0.208,11.395,11.157,19.109,11.157,19.109
							s10.661-8.108,10.453-19.502C78.926,429.084,67.977,421.37,67.977,421.37z"/>
						<path style="fill:#E5C2A5;" d="M68.68,459.981c0,0,10.661-8.108,10.453-19.502c-0.02-1.119-0.147-2.201-0.354-3.245
							c-1.059,3.741-5.072,16.643-10.085,16.734c-5.854,0.107-10.78-17.085-10.794-17.134c-0.262,1.291-0.402,2.639-0.377,4.039
							C57.731,452.267,68.68,459.981,68.68,459.981z"/>
					</g>
					<ellipse style="fill:#4C873C;" cx="67.882" cy="464.871" rx="20.464" ry="6.651"/>
				</g>
			</g>
			<path style="fill:#609140;" d="M707.652,388.111c0,0,4.667-8,8.445-4.889c0,0,4.222-8.889,12.444-3.778
				c0,0,4.889-5.556,14.667,8.444C743.208,387.889,729.875,396.778,707.652,388.111z"/>
			<path style="fill:#567F3B;" d="M624.467,347.148c0,0,5.333-4.296,9.63-2.37c0,0,5.778-8.889,15.111-3.556
				c0,0,4.296-1.333,6.222,3.259C655.43,344.482,643.875,351.148,624.467,347.148z"/>
			<path style="fill:#567F3B;" d="M596.467,489.222c0,0,39.111-27.556,66.667-9.333c0,0,19.111-32.444,53.778-17.333
				c0,0,2.222-6.222,9.333-2.222c0,0,40.889-18.222,72.889,25.778c0,0,15.556-0.889,28,17.333H534.245
				C534.245,503.444,574.245,475.889,596.467,489.222z"/>
		</g>
	</g>
</g>
</svg>
