<svg width="115" height="115" viewBox="0 0 115 115" fill="none" xmlns="http://www.w3.org/2000/svg">
<path fill-rule="evenodd" clip-rule="evenodd" d="M112.594 2.3V112.7H2.40692V111.93H111.818V85.2691L102.48 95.1752L108.676 110.551L94.8865 101.203V101.201L82.9069 111.847L85.7072 96.9324L72.596 90.6258L86.9032 86.595L90.4544 72.0257L97.4418 85.6037L111.819 84.9586V2.3H112.594ZM84.0765 109.773L94.829 100.24L107.026 108.511L101.588 94.9992L110.278 85.7877L96.9898 86.3834L96.8794 86.1707L90.7154 74.1865L87.5483 87.2114L74.7638 90.8144L86.5651 96.4977L84.0765 109.773ZM105.231 83.4785L90.9615 3.24185L90.2025 3.37525L104.473 83.6119L105.231 83.4785ZM106.958 92.2047L109.865 109.015L109.106 109.144L106.197 92.3301L106.958 92.2036V92.2047ZM106.289 109.156L90.5659 106.066L90.4222 106.819L106.139 109.909L106.289 109.157V109.156ZM2.96927 89.4378L83.1139 104.796L82.9702 105.55L2.82667 90.1911L2.96927 89.4389V89.4378ZM83.9132 99.0875L9.58062 68.4676L9.29427 69.176L83.6234 99.8005L83.9132 99.0875ZM18.4552 51.052L76.2496 87.9451L75.8379 88.596L18.0481 51.7006L18.4552 51.0531V51.052ZM86.0361 85.3622L33.151 33.2005L32.6209 33.7525L85.5059 85.905L86.0349 85.3611L86.0361 85.3622ZM50.4689 19.0877L88.0923 77.0627L87.446 77.4824L49.8272 19.5109L50.4689 19.0877ZM99.8464 83.9454L69.4922 9.2483L68.7872 9.5427L99.1334 84.2306L99.8464 83.9454ZM107.845 80.2827L106.99 80.3425L107.179 82.9507L108.034 82.8909L107.845 80.2827ZM106.676 76.0863L107.531 76.0231L107.723 78.6313L106.868 78.6934L106.676 76.0863ZM107.219 71.7646L106.365 71.8232L106.557 74.4326L107.411 74.3682L107.219 71.7646ZM106.052 67.5671L106.907 67.5073L107.099 70.1109L106.244 70.1742L106.052 67.566V67.5671ZM106.595 63.2431L105.74 63.3029L105.932 65.9123L106.787 65.8525L106.595 63.2443V63.2431ZM105.429 59.0479L106.283 58.9835L106.475 61.5929L105.621 61.6561L105.429 59.0479ZM105.97 54.7251L105.116 54.7849L105.308 57.3931L106.162 57.3333L105.971 54.7251H105.97ZM104.805 50.5276L105.66 50.4632L105.852 53.0679L104.997 53.1289L104.805 50.5276ZM105.348 46.207L104.494 46.2714L104.686 48.8727L105.54 48.8118L105.348 46.207ZM104.183 42.0084L105.036 41.9463L105.225 44.5533L104.374 44.6166L104.183 42.0084ZM104.725 37.6844L103.87 37.7453L104.06 40.3535L104.914 40.2926L104.725 37.6844ZM103.559 33.4869L104.413 33.4259L104.603 36.0341L103.747 36.0962L103.559 33.488V33.4869ZM104.101 29.1698L103.246 29.2319V29.233L103.436 31.8355L104.29 31.7745L104.101 29.1698ZM102.934 24.9688L103.785 24.909L103.978 27.5138L103.124 27.577L102.934 24.9688ZM103.475 20.6471L102.619 20.7058L102.811 23.3151L103.666 23.2542L103.475 20.6471ZM102.309 16.4496L103.163 16.3852L103.355 18.9934L102.501 19.0578L102.309 16.4485V16.4496ZM101.786 80.0124L100.958 80.2528L101.69 82.7644L102.512 82.524L101.788 80.0124H101.786ZM99.7717 76.1484L100.594 75.9115L101.325 78.4197L100.497 78.6612L99.7728 76.1484H99.7717ZM99.406 71.8083L98.578 72.0487L99.3094 74.558L100.132 74.3165L99.4071 71.8083H99.406ZM97.3912 67.9478L98.2134 67.7109L98.9448 70.2202L98.1168 70.4617L97.3923 67.9489V67.9478H97.3912ZM97.0255 63.6054L96.1975 63.8469L96.9289 66.355L97.75 66.1147L97.0255 63.6054ZM95.013 59.7414L95.8341 59.501L96.5655 62.0138L95.7375 62.2541L95.013 59.7425V59.7414ZM94.645 55.4013L93.8193 55.6428L93.817 55.6405L94.5495 58.1498L95.3706 57.914L94.6461 55.4013H94.645ZM92.6313 51.5373L93.4524 51.2981L94.185 53.8062L93.357 54.0477L92.6313 51.5384V51.5373ZM92.2656 47.1995L91.4376 47.4364L92.169 49.948L92.9901 49.7088L92.2656 47.1995ZM90.252 43.3355L91.0731 43.094L91.8056 45.6044L90.9776 45.8448L90.2531 43.3355H90.252ZM89.8863 38.9908L89.0583 39.2323L89.7897 41.7427L90.6108 41.5024L89.8863 38.9908ZM87.8715 35.1325L88.6926 34.8922L89.424 37.4038L88.596 37.6418L87.8715 35.1325ZM86.6858 31.0305H86.6835H86.6847H86.6858ZM86.6858 31.0305L87.5058 30.7913L88.2372 33.3029L87.4092 33.5386L86.6847 31.0316L86.6858 31.0305ZM85.4898 26.9273L86.3178 26.6904L87.0423 29.1997L86.2212 29.4412L85.4887 26.9284L85.491 26.9273H85.4898ZM85.1264 22.5872L84.3042 22.8275L85.031 25.3368L85.8578 25.0953L85.1264 22.5872ZM83.1116 18.7232L83.9385 18.4817L84.663 20.9944L83.8419 21.2359L83.1116 18.7232ZM88.228 68.77L87.469 69.161L88.6489 71.4875L89.4171 71.0999L88.2291 68.77H88.228ZM85.5255 65.3534L86.2925 64.9635L87.4805 67.2934L86.7123 67.6798L85.5255 65.3534ZM84.3571 61.1559L83.5889 61.5469L84.7768 63.8722L85.545 63.4858L84.3571 61.1559ZM81.6534 57.7381L82.4205 57.3494L83.6084 59.6815L82.8402 60.0703L81.6534 57.7381ZM80.4839 53.5417L79.7157 53.9316L80.9036 56.2638L81.6638 55.8739L80.4839 53.5417ZM77.7791 50.1239L78.5473 49.7352L79.7283 52.0674L78.967 52.4561L77.7791 50.1239ZM76.6038 45.9276L75.8436 46.3174L77.0316 48.6496L77.7917 48.2598L76.6049 45.9276H76.6038ZM73.9059 42.5098L74.6672 42.1199L75.8551 44.4533L75.0938 44.8397L73.9059 42.5098ZM72.7306 38.3203L71.9704 38.7067L73.1572 41.0355L73.9185 40.6445L72.7306 38.3203ZM70.035 34.9014L71.2229 37.229L71.9831 36.8391L70.7963 34.5138L70.0361 34.9002L70.035 34.9014ZM68.8597 30.7073L68.0984 31.0937L69.2794 33.4236L70.0476 33.0338L68.8597 30.7073ZM66.1629 27.2861L66.9242 26.8997L68.111 29.2261L67.344 29.616L66.1629 27.2861ZM64.9865 23.092L64.2263 23.4819L65.4062 25.8118L66.1744 25.4242L64.9865 23.092ZM83.9615 79.189L84.6285 78.6508L86.2707 80.684L85.6048 81.2245L83.9615 79.189ZM81.9467 75.325L81.282 75.8644L82.9184 77.8952L83.5889 77.3594L81.9467 75.3239V75.325ZM78.5956 72.5386L79.2614 72.0027L80.9036 74.0359L80.2366 74.5764L78.5944 72.5409L78.5956 72.5386ZM76.5831 68.6826L75.9161 69.2174L77.5606 71.2551L78.2253 70.7147L76.5819 68.6826H76.5831ZM73.2366 65.8939L73.9024 65.3534L75.5446 67.3889L74.8742 67.9271L73.2366 65.8939ZM71.216 62.031L70.5502 62.5692L72.1947 64.6047L72.8594 64.0642L71.2149 62.031H71.216ZM67.8695 59.2446L68.5365 58.7041L70.1776 60.7396L69.506 61.2778L67.8707 59.2446H67.8695ZM65.8501 55.384L65.1831 55.9211L66.8265 57.9554L67.4912 57.4161L65.8501 55.384ZM62.5036 52.5987L63.1695 52.0628L64.8128 54.0949L64.147 54.6354L62.5036 52.5987ZM60.4911 48.7347L59.8241 49.2752L61.4606 51.3073L62.1322 50.7702L60.49 48.7347H60.4911ZM57.1389 45.9494L57.8047 45.4124L59.4469 47.4444L58.7799 47.9849L57.1389 45.9494ZM55.1241 42.0854L54.4582 42.6259L56.0958 44.6614L56.7674 44.1232L55.1241 42.0854ZM51.7776 39.3047L52.4446 38.7642L54.0856 40.7997L53.414 41.3368L51.7787 39.3047H51.7776ZM49.7582 35.4419L49.0923 35.9789L50.7345 38.0144L51.4004 37.4739L49.7582 35.4419ZM78.6922 85.5106L79.2246 84.8401L81.2808 86.4524L80.7541 87.124L78.6922 85.5106ZM75.8632 82.2032L75.3342 82.8794V82.8805L77.3915 84.4939L77.9194 83.8155L75.8632 82.2032ZM71.9716 80.2401L72.4983 79.5662L74.5545 81.1796L74.0278 81.8536L71.9716 80.2401ZM69.1403 76.9304L68.6124 77.6089L70.6686 79.2212L71.1965 78.5427L69.1403 76.9304ZM65.2498 74.9708L65.7788 74.2992L67.8339 75.9127L67.306 76.5831L65.2498 74.9708ZM62.4139 71.6623L61.8861 72.3362L63.9446 73.9485L64.477 73.2746L62.4139 71.6623ZM58.5235 69.7015L59.0571 69.0276L61.1133 70.6399L60.5854 71.3138L58.5235 69.7015ZM55.6933 66.3918L55.1655 67.0657L57.2217 68.6792L57.7495 68.0052L55.6933 66.3918ZM51.8029 64.4299L52.3365 63.756L54.3927 65.3695L53.8637 66.0434L51.8029 64.4299ZM48.9716 61.1214L48.4449 61.7952L50.5011 63.4087L51.0289 62.7337L48.9727 61.1214H48.9716ZM45.0823 59.1606L45.6101 58.4867L47.6663 60.099L47.1373 60.7729L45.0823 59.1606ZM42.2452 55.8521L41.7185 56.5225L43.7747 58.136L44.3083 57.4644L42.2452 55.8521ZM38.3617 53.8913L38.8884 53.2174L40.9446 54.8297L40.4167 55.5036L38.3617 53.8913ZM35.5246 50.5828L34.9968 51.2567L37.0553 52.869L37.5877 52.1951L35.5246 50.5828ZM70.035 89.3493L70.4214 88.5868L72.7559 89.7621L72.3695 90.5292L70.035 89.3516V89.3504V89.3493ZM66.6057 86.6617L66.2193 87.4288L68.5572 88.604L68.9413 87.8393L66.6068 86.6617H66.6057ZM62.407 85.5048L62.7934 84.7412L65.1279 85.9188L64.7415 86.6824L62.407 85.5048ZM58.98 82.8184L58.5936 83.5866L60.9316 84.7619L61.3157 83.9937L58.9812 82.8184H58.98ZM54.7802 81.6604L57.1147 82.8345L57.5023 82.0709L55.1666 80.8933L54.7802 81.6604ZM51.3509 78.974L50.9668 79.7376L53.3002 80.9152L53.6866 80.1516L51.3521 78.974H51.3509ZM47.1523 77.8159L47.5387 77.05L49.8732 78.2253L49.4868 78.9935L47.1523 77.8159ZM43.7253 75.1272L43.3377 75.8943L45.6722 77.0673L46.0563 76.3048L43.7241 75.1272H43.7253ZM39.5255 73.9692L39.9119 73.2056L42.2464 74.3843L41.86 75.1479L39.5255 73.9692ZM36.095 71.2839L35.7086 72.0487L38.0466 73.2263L38.4307 72.4592L36.095 71.2839ZM31.8952 70.127L32.2816 69.3588L34.6173 70.5364L34.2309 71.3L31.8964 70.127H31.8952ZM28.4694 67.4383L28.083 68.2019L30.4152 69.3807L30.8016 68.6125L28.4694 67.4383ZM24.2696 66.2803L24.6571 65.5155L26.9916 66.6908L26.6052 67.459L24.2707 66.2803H24.2696ZM20.8403 63.5904L20.4562 64.3586L22.7884 65.5316L23.1748 64.768L20.8403 63.5904ZM78.4024 100.49L78.6324 99.6659L81.1509 100.373L80.9163 101.197L78.4024 100.49ZM74.52 98.5079L74.29 99.3324L76.8039 100.04L77.0373 99.2151L74.52 98.5079ZM70.1753 98.1755L70.4087 97.351L72.9238 98.0582L72.6938 98.8828L70.1753 98.1755ZM66.2998 96.1975L66.0663 97.0221L68.5837 97.7293L68.8137 96.9048L66.2998 96.1987V96.1975ZM61.9539 95.8652L62.1874 95.0406L64.7013 95.7479L64.4713 96.5724L61.9539 95.8652ZM58.075 93.8872L57.845 94.7106L60.36 95.4178L60.5935 94.5933L58.075 93.886V93.8872ZM53.7303 93.5537L53.9603 92.7291L56.4788 93.4364L56.2453 94.2609L53.7303 93.5537ZM49.849 91.5722L49.619 92.3968L52.1329 93.104L52.3664 92.2795L49.8479 91.5722H49.849ZM45.5089 91.2421L45.7424 90.4176L48.2563 91.1249L48.0263 91.9494L45.5078 91.2421H45.5089ZM41.63 89.2607L41.3965 90.0853L43.9139 90.7914L44.1439 89.968L41.63 89.2607ZM37.283 88.9318L37.5153 88.1073L40.0303 88.8145L39.8003 89.6391L37.2818 88.9318H37.283ZM33.404 86.9504L33.1729 87.7749H33.174L35.6891 88.4822L35.9225 87.6576L33.404 86.9504ZM29.0628 86.6203L29.2939 85.7958L31.8113 86.503L31.5778 87.3276L29.0628 86.6203ZM25.1804 84.6389L24.9504 85.4623L27.4643 86.1695L27.6977 85.345L25.1792 84.6389H25.1804ZM20.8368 84.3054L21.0703 83.482L23.5853 84.1881L23.3553 85.0126L20.8368 84.3054ZM16.9579 82.3274L16.7244 83.1508L19.2429 83.858L19.4729 83.0335L16.9579 82.3262V82.3274ZM75.9264 108.255L76 107.4L78.6025 107.63L78.5277 108.485L75.9264 108.255ZM71.745 107.025L71.6703 107.879L74.275 108.109L74.3486 107.255L71.745 107.025ZM67.4153 107.502L67.49 106.648L70.0913 106.878L70.0166 107.733L67.4153 107.503V107.502ZM63.2373 106.271L63.1626 107.127L65.7662 107.355L65.8409 106.5L63.2373 106.271ZM58.9076 106.75L58.9823 105.895L61.5871 106.125L61.5123 106.98L58.9076 106.75ZM54.7262 105.521L54.6514 106.375L57.2573 106.604L57.3321 105.748L54.7262 105.521ZM50.3987 105.997L50.4735 105.142L53.0771 105.372L53.0035 106.228L50.3987 105.998V105.997ZM46.2185 104.766L46.1437 105.621L48.745 105.851L48.8198 104.996L46.2185 104.766ZM41.891 105.245L41.9658 104.39L44.5694 104.62L44.4946 105.475L41.891 105.245ZM37.7108 104.013L37.636 104.867L40.2373 105.097L40.3121 104.243L37.7108 104.013ZM33.3799 104.491L33.4546 103.637L36.0605 103.867L35.9858 104.722L33.3799 104.492V104.491ZM29.1996 103.261L29.126 104.115L31.7273 104.345L31.8021 103.491L29.1996 103.261ZM24.8722 103.739L24.9469 102.885L27.5517 103.115L27.4769 103.97L24.8722 103.74V103.739ZM20.6931 102.508L20.6195 103.362L23.2208 103.592L23.2955 102.739L20.6931 102.508ZM16.3622 102.988L16.4358 102.134L19.0405 102.362L18.9658 103.216L16.3622 102.988ZM12.1831 101.754L12.1083 102.61L14.7131 102.84L14.7878 101.985L12.1831 101.755V101.754ZM97.4533 104.599L100.811 106.52L97.0692 105.224L97.4533 104.599ZM88.5316 109.013L91.9356 109.205L91.8896 109.924L88.4361 109.732L88.5304 109.013H88.5316ZM94.4782 109.349V110.068L99.3232 110.309L94.4782 109.349ZM104.551 97.7891L105.414 97.405L105.943 101.194L104.551 97.7891ZM110.115 91.5055L109.299 91.6493L109.732 94.9107H110.211L110.115 91.5067V91.5055ZM109.684 97.6925L110.451 97.742L110.355 102.25L109.684 97.6937V97.6925Z" fill="#99813D"/>
</svg>
